  0
SECTION
  2
HEADER
  9
$ACADVER
  1
AC1009
  9
$INSBASE
 10
0.0
 20
0.0
 30
0.0
  9
$EXTMIN
 10
-78.1499999999998
 20
14
 30
0.0
  9
$EXTMAX
 10
78.1499999999998
 20
98.3
 30
0.0
  9
$LIMMIN
 10
0.0
 20
0.0
  9
$LIMMAX
 10
12.0000
 20
 9.0000
9
$ORTHOMODE
70
0
9
$REGENMODE
70
1
9
$FILLMODE
70
1
9
$QTEXTMODE
70
0
9
$MIRRTEXT
70
1
9
$DRAGMODE
70
2
9
$LTSCALE
40
1.0
9
$OSMODE
70
0
9
$ATTMODE
70
1
9
$TEXTSIZE
40
0.2
9
$TRACEWID
40
0.05
9
$TEXTSTYLE
7
STANDARD
9
$CLAYER
8
0
9
$CELTYPE
6
BYLAYER
9
$CECOLOR
62
256
9
$DIMSCALE
40
1.0
9
$DIMASZ
40
0.18
9
$DIMEXO
40
0.0625
9
$DIMDLI
40
0.38
9
$DIMRND
40
0.0
9
$DIMDLE
40
0.0
9
$DIMEXE
40
0.18
9
$DIMTP
40
0.0
9
$DIMTM
40
0.0
9
$DIMTXT
40
0.18
9
$DIMCEN
40
0.09
9
$DIMTSZ
40
0.0
9
$DIMTOL
70
0
9
$DIMLIM
70
0
9
$DIMTIH
70
1
9
$DIMTOH
70
1
9
$DIMSE1
70
0
9
$DIMSE2
70
0
9
$DIMTAD
70
0
9
$DIMZIN
70
0
9
$DIMBLK
1

9
$DIMASO
70
1
9
$DIMSHO
70
1
9
$DIMPOST
1

9
$DIMAPOST
1

9
$DIMALT
70
0
9
$DIMALTD
70
2
9
$DIMALTF
40
25.4
9
$DIMLFAC
40
1.0
9
$DIMTOFL
70
0
9
$DIMTVP
40
0.0
9
$DIMTIX
70
0
9
$DIMSOXD
70
0
9
$DIMSAH
70
0
9
$DIMBLK1
1

9
$DIMBLK2
1

9
$DIMSTYLE
2
*UNNAMED
9
$DIMCLRD
70
0
9
$DIMCLRE
70
0
9
$DIMCLRT
70
0
9
$DIMTFAC
40
1.0
9
$DIMGAP
40
0.09
9
$LUNITS
70
2
9
$LUPREC
70
4
9
$SKETCHINC
40
0.1
9
$FILLETRAD
40
0.0
9
$AUNITS
70
0
9
$AUPREC
70
0
9
$MENU
1
acad
9
$ELEVATION
40
0.0
9
$PELEVATION
40
0.0
9
$THICKNESS
40
0.0
9
$LIMCHECK
70
0
9
$BLIPMODE
70
1
9
$CHAMFERA
40
0.0
9
$CHAMFERB
40
0.0
9
$SKPOLY
70
0
9
$TDCREATE
40
2449214.701881018
9
$TDUPDATE
40
2449214.701881018
9
$TDINDWG
40
0.0000000000
9
$TDUSRTIMER
40
0.0000000000
9
$USRTIMER
70
1
9
$ANGBASE
50
0.0
9
$ANGDIR
70
0
9
$PDMODE
70
0
9
$PDSIZE
40
0.0
9
$PLINEWID
40
0.0
9
$COORDS
70
1
9
$SPLFRAME
70
0
9
$SPLINETYPE
70
6
9
$SPLINESEGS
70
8
9
$ATTDIA
70
0
9
$ATTREQ
70
1
9
$HANDLING
70
0
9
$HANDSEED
5
0
9
$SURFTAB1
70
6
9
$SURFTAB2
70
6
9
$SURFTYPE
70
6
9
$SURFU
70
6
9
$SURFV
70
6
9
$UCSNAME
2

9
$UCSORG
10
0.0
20
0.0
30
0.0
9
$UCSXDIR
10
1.0
20
0.0
30
0.0
9
$UCSYDIR
10
0.0
20
1.0
30
0.0
9
$PUCSNAME
2

9
$PUCSORG
10
0.0
20
0.0
30
0.0
9
$PUCSXDIR
10
1.0
20
0.0
30
0.0
9
$PUCSYDIR
10
0.0
20
1.0
30
0.0
9
$USERI1
70
0
9
$USERI2
70
0
9
$USERI3
70
0
9
$USERI4
70
0
9
$USERI5
70
0
9
$USERR1
40
0.0
9
$USERR2
40
0.0
9
$USERR3
40
0.0
9
$USERR4
40
0.0
9
$USERR5
40
0.0
9
$WORLDVIEW
70
1
9
$SHADEDGE
70
3
9
$SHADEDIF
70
70
9
$TILEMODE
70
1
9
$MAXACTVP
70
16
9
$PINSBASE
10
0.0
20
0.0
30
0.0
9
$PLIMCHECK
70
0
  9
$PEXTMIN
 10
1.0000000000000000E+020
 20
1.0000000000000000E+020
 30
1.0000000000000000E+020
  9
$PEXTMAX
 10
-1.0000000000000000E+020
 20
-1.0000000000000000E+020
 30
-1.0000000000000000E+020
  9
$PLIMMIN
 10
-78.1499999999998
 20
14
  9
$PLIMMAX
 10
12.0000
 20
 9.0000
  9
$UNITMODE
 70
0
  9
$VISRETAIN
 70
1
  9
$PLINEGEN
 70
0
  9
$PSLTSCALE
 70
1
  0
ENDSEC
  0
SECTION
  2
TABLES
  0
TABLE
  2
VPORT
 70
3
  0
VPORT
  2
*ACTIVE
 70
0
 10
0.0
 20
0.0
 11
1.0
 21
1.0
 12
0
 22
56.15
 13
0.0
 23
0.0
 14
1.0
 24
1.0
 15
1.0
 25
1.0
 16
0.0
 26
0.0
 36
1.0
 17
0.0
 27
0.0
 37
0.0
 40
84.3
 41
1.85409252669039
 42
50.0
 43
0.0
 44
0.0
 50
0.0
 51
0.0
 71
0
 72
100
 73
1
 74
3
 75
0
 76
0
 77
0
 78
0
  0
ENDTAB
0
TABLE
2
LTYPE
70
1
0
LTYPE
2
CONTINUOUS
70
64
3
Solid line
72
65
73
0
40
0.0
0
ENDTAB
  0
TABLE
  2
LAYER
 70
2
  0
LAYER
  2
Slice
 70
0
 62
7
  6
CONTINUOUS
  0
ENDTAB
0
TABLE
2
STYLE
70
1
0
STYLE
2
STANDARD
70
64
40
0.0
41
1.0
50
0.0
71
0
42
0.2
3
txt
4

0
ENDTAB
0
TABLE
2
VIEW
70
0
0
ENDTAB
0
TABLE
2
UCS
70
0
0
ENDTAB
0
TABLE
2
APPID
70
1
0
APPID
2
ACAD
70
64
0
ENDTAB
0
TABLE
2
DIMSTYLE
70
0
0
ENDTAB
0
ENDSEC
0
SECTION
2
BLOCKS
0
ENDSEC
  0
SECTION
  2
ENTITIES
  0
ARC
  5
0
  8
Slice
 10
12.7
 20
43.05
 30
0
 40
0.199999999999999
 50
180
 51
270
  0
LINE
  5
0
  8
Slice
 10
15.5
 20
64.15
 30
0
 11
15.5
 21
60.55
 31
0
  0
LINE
  5
0
  8
Slice
 10
11.5
 20
59.25
 30
0
 11
11.5
 21
55.65
 31
0
  0
ARC
  5
0
  8
Slice
 10
21.1
 20
68.95
 30
0
 40
0.200000000000017
 50
-90
 51
0
  0
ARC
  5
0
  8
Slice
 10
18.1
 20
60.55
 30
0
 40
0.200000000000003
 50
-90
 51
0
  0
ARC
  5
0
  8
Slice
 10
15.7
 20
68.95
 30
0
 40
0.199999999999999
 50
180
 51
270
  0
ARC
  5
0
  8
Slice
 10
14.1
 20
64.75
 30
0
 40
0.200000000000003
 50
-90
 51
0
  0
LINE
  5
0
  8
Slice
 10
14.1
 20
76.95
 30
0
 11
13.7
 21
76.95
 31
0
  0
LINE
  5
0
  8
Slice
 10
13.7
 20
51.25
 30
0
 11
14.1
 21
51.25
 31
0
  0
LINE
  5
0
  8
Slice
 10
14.1
 20
46.85
 30
0
 11
13.7
 21
46.85
 31
0
  0
LINE
  5
0
  8
Slice
 10
13.3
 20
43.05
 30
0
 11
13.3
 21
46.65
 31
0
  0
LINE
  5
0
  8
Slice
 10
14.5
 20
76.75
 30
0
 11
14.5
 21
73.15
 31
0
  0
LINE
  5
0
  8
Slice
 10
12.7
 20
51.25
 30
0
 11
13.1
 21
51.25
 31
0
  0
ARC
  5
0
  8
Slice
 10
17.7
 20
64.15
 30
0
 40
0.200000000000003
 50
90
 51
180
  0
ARC
  5
0
  8
Slice
 10
18.7
 20
72.55
 30
0
 40
0.200000000000017
 50
90
 51
180
  0
ARC
  5
0
  8
Slice
 10
18.1
 20
68.95
 30
0
 40
0.200000000000017
 50
-90
 51
0
  0
LINE
  5
0
  8
Slice
 10
15.1
 20
51.05
 30
0
 11
14.7
 21
51.05
 31
0
  0
LINE
  5
0
  8
Slice
 10
15.1
 20
76.95
 30
0
 11
14.7
 21
76.95
 31
0
  0
LINE
  5
0
  8
Slice
 10
11.5
 20
76.75
 30
0
 11
11.5
 21
73.15
 31
0
  0
ARC
  5
0
  8
Slice
 10
17.7
 20
68.95
 30
0
 40
0.199999999999999
 50
180
 51
270
  0
ARC
  5
0
  8
Slice
 10
15.1
 20
51.45
 30
0
 40
0.200000000000003
 50
-90
 51
0
  0
ARC
  5
0
  8
Slice
 10
12.1
 20
64.15
 30
0
 40
0.200000000000001
 50
0
 51
90
  0
LINE
  5
0
  8
Slice
 10
15.3
 20
68.95
 30
0
 11
15.3
 21
72.55
 31
0
  0
ARC
  5
0
  8
Slice
 10
14.1
 20
43.05
 30
0
 40
0.200000000000003
 50
-90
 51
0
  0
ARC
  5
0
  8
Slice
 10
18.1
 20
50.85
 30
0
 40
0.199999999999999
 50
0
 51
90
  0
ARC
  5
0
  8
Slice
 10
12.7
 20
59.25
 30
0
 40
0.200000000000003
 50
90
 51
180
  0
ARC
  5
0
  8
Slice
 10
18.7
 20
59.25
 30
0
 40
0.200000000000003
 50
90
 51
180
  0
ARC
  5
0
  8
Slice
 10
18.1
 20
46.65
 30
0
 40
0.199999999999999
 50
0
 51
90
  0
LINE
  5
0
  8
Slice
 10
12.1
 20
64.35
 30
0
 11
11.7
 21
64.35
 31
0
  0
LINE
  5
0
  8
Slice
 10
19.3
 20
64.75
 30
0
 11
19.3
 21
68.35
 31
0
  0
ARC
  5
0
  8
Slice
 10
18.1
 20
51.45
 30
0
 40
0.200000000000003
 50
-90
 51
0
  0
ARC
  5
0
  8
Slice
 10
21.1
 20
76.75
 30
0
 40
0.199999999999999
 50
0
 51
90
  0
ARC
  5
0
  8
Slice
 10
17.1
 20
50.85
 30
0
 40
0.199999999999999
 50
0
 51
90
  0
ARC
  5
0
  8
Slice
 10
17.1
 20
47.25
 30
0
 40
0.200000000000003
 50
-90
 51
0
  0
LINE
  5
0
  8
Slice
 10
17.1
 20
76.95
 30
0
 11
16.7
 21
76.95
 31
0
  0
LINE
  5
0
  8
Slice
 10
15.5
 20
50.85
 30
0
 11
15.5
 21
47.25
 31
0
  0
LINE
  5
0
  8
Slice
 10
13.5
 20
72.55
 30
0
 11
13.5
 21
68.95
 31
0
  0
LINE
  5
0
  8
Slice
 10
14.1
 20
72.75
 30
0
 11
13.7
 21
72.75
 31
0
  0
LINE
  5
0
  8
Slice
 10
17.3
 20
73.15
 30
0
 11
17.3
 21
76.75
 31
0
  0
ARC
  5
0
  8
Slice
 10
13.1
 20
50.85
 30
0
 40
0.199999999999998
 50
0
 51
90
  0
ARC
  5
0
  8
Slice
 10
22.1
 20
60.55
 30
0
 40
0.200000000000003
 50
-90
 51
0
  0
LINE
  5
0
  8
Slice
 10
21.3
 20
68.95
 30
0
 11
21.3
 21
72.55
 31
0
  0
LINE
  5
0
  8
Slice
 10
15.5
 20
55.05
 30
0
 11
15.5
 21
51.45
 31
0
  0
ARC
  5
0
  8
Slice
 10
13.7
 20
68.35
 30
0
 40
0.200000000000003
 50
90
 51
180
  0
ARC
  5
0
  8
Slice
 10
22.1
 20
76.75
 30
0
 40
0.199999999999999
 50
0
 51
90
  0
ARC
  5
0
  8
Slice
 10
16.7
 20
64.75
 30
0
 40
0.199999999999999
 50
180
 51
270
  0
ARC
  5
0
  8
Slice
 10
19.1
 20
59.25
 30
0
 40
0.199999999999999
 50
0
 51
90
  0
LINE
  5
0
  8
Slice
 10
12.3
 20
50.85
 30
0
 11
12.3
 21
47.25
 31
0
  0
LINE
  5
0
  8
Slice
 10
14.3
 20
43.05
 30
0
 11
14.3
 21
46.65
 31
0
  0
ARC
  5
0
  8
Slice
 10
17.1
 20
73.15
 30
0
 40
0.200000000000003
 50
-90
 51
0
  0
ARC
  5
0
  8
Slice
 10
12.1
 20
59.25
 30
0
 40
0.200000000000001
 50
0
 51
90
  0
LINE
  5
0
  8
Slice
 10
16.1
 20
64.35
 30
0
 11
15.7
 21
64.35
 31
0
  0
ARC
  5
0
  8
Slice
 10
20.1
 20
68.95
 30
0
 40
0.200000000000017
 50
-90
 51
0
  0
LINE
  5
0
  8
Slice
 10
18.3
 20
47.25
 30
0
 11
18.3
 21
50.85
 31
0
  0
LINE
  5
0
  8
Slice
 10
13.5
 20
76.75
 30
0
 11
13.5
 21
73.15
 31
0
  0
ARC
  5
0
  8
Slice
 10
18.7
 20
46.65
 30
0
 40
0.200000000000003
 50
90
 51
180
  0
LINE
  5
0
  8
Slice
 10
16.1
 20
55.25
 30
0
 11
15.7
 21
55.25
 31
0
  0
ARC
  5
0
  8
Slice
 10
13.7
 20
51.45
 30
0
 40
0.200000000000001
 50
180
 51
270
  0
LINE
  5
0
  8
Slice
 10
21.1
 20
68.55
 30
0
 11
20.7
 21
68.55
 31
0
  0
LINE
  5
0
  8
Slice
 10
15.3
 20
51.45
 30
0
 11
15.3
 21
55.05
 31
0
  0
ARC
  5
0
  8
Slice
 10
16.7
 20
51.45
 30
0
 40
0.199999999999999
 50
180
 51
270
  0
LINE
  5
0
  8
Slice
 10
12.1
 20
68.55
 30
0
 11
11.7
 21
68.55
 31
0
  0
LINE
  5
0
  8
Slice
 10
20.3
 20
64.75
 30
0
 11
20.3
 21
68.35
 31
0
  0
LINE
  5
0
  8
Slice
 10
18.7
 20
42.85
 30
0
 11
19.1
 21
42.85
 31
0
  0
ARC
  5
0
  8
Slice
 10
18.7
 20
55.05
 30
0
 40
0.200000000000003
 50
90
 51
180
  0
LINE
  5
0
  8
Slice
 10
16.7
 20
68.75
 30
0
 11
17.1
 21
68.75
 31
0
  0
ARC
  5
0
  8
Slice
 10
13.7
 20
68.95
 30
0
 40
0.200000000000001
 50
180
 51
270
  0
ARC
  5
0
  8
Slice
 10
16.1
 20
72.55
 30
0
 40
0.199999999999996
 50
0
 51
90
  0
ARC
  5
0
  8
Slice
 10
16.1
 20
50.85
 30
0
 40
0.199999999999996
 50
0
 51
90
  0
LINE
  5
0
  8
Slice
 10
17.5
 20
68.35
 30
0
 11
17.5
 21
64.75
 31
0
  0
LINE
  5
0
  8
Slice
 10
13.7
 20
55.45
 30
0
 11
14.1
 21
55.45
 31
0
  0
ARC
  5
0
  8
Slice
 10
19.1
 20
51.45
 30
0
 40
0.200000000000003
 50
-90
 51
0
  0
LINE
  5
0
  8
Slice
 10
17.3
 20
68.95
 30
0
 11
17.3
 21
72.55
 31
0
  0
ARC
  5
0
  8
Slice
 10
16.1
 20
73.15
 30
0
 40
0.200000000000003
 50
-90
 51
0
  0
ARC
  5
0
  8
Slice
 10
15.7
 20
72.55
 30
0
 40
0.200000000000017
 50
90
 51
180
  0
ARC
  5
0
  8
Slice
 10
14.7
 20
72.55
 30
0
 40
0.200000000000017
 50
90
 51
180
  0
ARC
  5
0
  8
Slice
 10
13.1
 20
72.55
 30
0
 40
0.199999999999998
 50
0
 51
90
  0
ARC
  5
0
  8
Slice
 10
15.1
 20
68.95
 30
0
 40
0.200000000000017
 50
-90
 51
0
  0
ARC
  5
0
  8
Slice
 10
15.7
 20
55.05
 30
0
 40
0.200000000000003
 50
90
 51
180
  0
LINE
  5
0
  8
Slice
 10
11.7
 20
72.95
 30
0
 11
12.1
 21
72.95
 31
0
  0
ARC
  5
0
  8
Slice
 10
14.7
 20
46.65
 30
0
 40
0.200000000000003
 50
90
 51
180
  0
ARC
  5
0
  8
Slice
 10
21.7
 20
60.55
 30
0
 40
0.199999999999999
 50
180
 51
270
  0
ARC
  5
0
  8
Slice
 10
19.7
 20
68.95
 30
0
 40
0.199999999999999
 50
180
 51
270
  0
LINE
  5
0
  8
Slice
 10
17.5
 20
72.55
 30
0
 11
17.5
 21
68.95
 31
0
  0
ARC
  5
0
  8
Slice
 10
14.1
 20
47.25
 30
0
 40
0.200000000000003
 50
-90
 51
0
  0
LINE
  5
0
  8
Slice
 10
12.1
 20
46.85
 30
0
 11
11.7
 21
46.85
 31
0
  0
ARC
  5
0
  8
Slice
 10
15.7
 20
59.25
 30
0
 40
0.200000000000003
 50
90
 51
180
  0
ARC
  5
0
  8
Slice
 10
17.1
 20
51.45
 30
0
 40
0.200000000000003
 50
-90
 51
0
  0
LINE
  5
0
  8
Slice
 10
12.5
 20
68.35
 30
0
 11
12.5
 21
64.75
 31
0
  0
ARC
  5
0
  8
Slice
 10
17.1
 20
59.25
 30
0
 40
0.199999999999999
 50
0
 51
90
  0
LINE
  5
0
  8
Slice
 10
19.1
 20
72.75
 30
0
 11
18.7
 21
72.75
 31
0
  0
LINE
  5
0
  8
Slice
 10
19.7
 20
68.75
 30
0
 11
20.1
 21
68.75
 31
0
  0
ARC
  5
0
  8
Slice
 10
15.7
 20
50.85
 30
0
 40
0.200000000000003
 50
90
 51
180
  0
ARC
  5
0
  8
Slice
 10
17.1
 20
43.05
 30
0
 40
0.200000000000003
 50
-90
 51
0
  0
LINE
  5
0
  8
Slice
 10
11.5
 20
55.05
 30
0
 11
11.5
 21
51.45
 31
0
  0
LINE
  5
0
  8
Slice
 10
21.1
 20
76.95
 30
0
 11
20.7
 21
76.95
 31
0
  0
LINE
  5
0
  8
Slice
 10
19.5
 20
64.15
 30
0
 11
19.5
 21
60.55
 31
0
  0
LINE
  5
0
  8
Slice
 10
18.5
 20
76.75
 30
0
 11
18.5
 21
73.15
 31
0
  0
ARC
  5
0
  8
Slice
 10
16.1
 20
76.75
 30
0
 40
0.199999999999996
 50
0
 51
90
  0
ARC
  5
0
  8
Slice
 10
14.1
 20
72.55
 30
0
 40
0.200000000000001
 50
0
 51
90
  0
LINE
  5
0
  8
Slice
 10
18.3
 20
73.15
 30
0
 11
18.3
 21
76.75
 31
0
  0
LINE
  5
0
  8
Slice
 10
19.3
 20
51.45
 30
0
 11
19.3
 21
55.05
 31
0
  0
LINE
  5
0
  8
Slice
 10
18.5
 20
68.35
 30
0
 11
18.5
 21
64.75
 31
0
  0
ARC
  5
0
  8
Slice
 10
19.1
 20
68.95
 30
0
 40
0.200000000000017
 50
-90
 51
0
  0
LINE
  5
0
  8
Slice
 10
16.1
 20
68.55
 30
0
 11
15.7
 21
68.55
 31
0
  0
LINE
  5
0
  8
Slice
 10
20.3
 20
60.55
 30
0
 11
20.3
 21
64.15
 31
0
  0
ARC
  5
0
  8
Slice
 10
15.1
 20
64.75
 30
0
 40
0.200000000000003
 50
-90
 51
0
  0
ARC
  5
0
  8
Slice
 10
18.1
 20
64.75
 30
0
 40
0.200000000000003
 50
-90
 51
0
  0
LINE
  5
0
  8
Slice
 10
13.7
 20
42.85
 30
0
 11
14.1
 21
42.85
 31
0
  0
ARC
  5
0
  8
Slice
 10
19.1
 20
55.05
 30
0
 40
0.199999999999999
 50
0
 51
90
  0
ARC
  5
0
  8
Slice
 10
19.1
 20
64.75
 30
0
 40
0.200000000000003
 50
-90
 51
0
  0
LINE
  5
0
  8
Slice
 10
14.5
 20
64.15
 30
0
 11
14.5
 21
60.55
 31
0
  0
ARC
  5
0
  8
Slice
 10
22.1
 20
68.35
 30
0
 40
0.199999999999999
 50
0
 51
90
  0
ARC
  5
0
  8
Slice
 10
13.1
 20
64.15
 30
0
 40
0.199999999999998
 50
0
 51
90
  0
ARC
  5
0
  8
Slice
 10
18.7
 20
68.95
 30
0
 40
0.199999999999999
 50
180
 51
270
  0
ARC
  5
0
  8
Slice
 10
18.1
 20
68.35
 30
0
 40
0.199999999999999
 50
0
 51
90
  0
LINE
  5
0
  8
Slice
 10
17.5
 20
46.65
 30
0
 11
17.5
 21
43.05
 31
0
  0
ARC
  5
0
  8
Slice
 10
13.7
 20
59.25
 30
0
 40
0.200000000000003
 50
90
 51
180
  0
ARC
  5
0
  8
Slice
 10
13.7
 20
55.65
 30
0
 40
0.200000000000001
 50
180
 51
270
  0
LINE
  5
0
  8
Slice
 10
16.1
 20
51.05
 30
0
 11
15.7
 21
51.05
 31
0
  0
ARC
  5
0
  8
Slice
 10
14.1
 20
55.05
 30
0
 40
0.200000000000001
 50
0
 51
90
  0
ARC
  5
0
  8
Slice
 10
18.7
 20
43.05
 30
0
 40
0.199999999999999
 50
180
 51
270
  0
LINE
  5
0
  8
Slice
 10
17.3
 20
43.05
 30
0
 11
17.3
 21
46.65
 31
0
  0
LINE
  5
0
  8
Slice
 10
12.3
 20
72.55
 30
0
 11
12.3
 21
68.95
 31
0
  0
LINE
  5
0
  8
Slice
 10
14.7
 20
51.25
 30
0
 11
15.1
 21
51.25
 31
0
  0
LINE
  5
0
  8
Slice
 10
16.7
 20
42.85
 30
0
 11
17.1
 21
42.85
 31
0
  0
ARC
  5
0
  8
Slice
 10
16.7
 20
55.05
 30
0
 40
0.200000000000003
 50
90
 51
180
  0
LINE
  5
0
  8
Slice
 10
16.5
 20
46.65
 30
0
 11
16.5
 21
43.05
 31
0
  0
LINE
  5
0
  8
Slice
 10
18.3
 20
51.45
 30
0
 11
18.3
 21
55.05
 31
0
  0
ARC
  5
0
  8
Slice
 10
16.1
 20
55.05
 30
0
 40
0.199999999999996
 50
0
 51
90
  0
ARC
  5
0
  8
Slice
 10
18.1
 20
76.75
 30
0
 40
0.199999999999999
 50
0
 51
90
  0
LINE
  5
0
  8
Slice
 10
19.1
 20
64.35
 30
0
 11
18.7
 21
64.35
 31
0
  0
ARC
  5
0
  8
Slice
 10
17.7
 20
68.35
 30
0
 40
0.200000000000003
 50
90
 51
180
  0
LINE
  5
0
  8
Slice
 10
18.5
 20
50.85
 30
0
 11
18.5
 21
47.25
 31
0
  0
LINE
  5
0
  8
Slice
 10
17.3
 20
51.45
 30
0
 11
17.3
 21
55.05
 31
0
  0
LINE
  5
0
  8
Slice
 10
16.3
 20
64.75
 30
0
 11
16.3
 21
68.35
 31
0
  0
ARC
  5
0
  8
Slice
 10
14.1
 20
68.95
 30
0
 40
0.200000000000017
 50
-90
 51
0
  0
LINE
  5
0
  8
Slice
 10
18.1
 20
68.55
 30
0
 11
17.7
 21
68.55
 31
0
  0
ARC
  5
0
  8
Slice
 10
14.7
 20
68.95
 30
0
 40
0.199999999999999
 50
180
 51
270
  0
ARC
  5
0
  8
Slice
 10
15.7
 20
46.65
 30
0
 40
0.200000000000003
 50
90
 51
180
  0
ARC
  5
0
  8
Slice
 10
17.1
 20
68.95
 30
0
 40
0.200000000000017
 50
-90
 51
0
  0
ARC
  5
0
  8
Slice
 10
21.1
 20
72.55
 30
0
 40
0.199999999999999
 50
0
 51
90
  0
ARC
  5
0
  8
Slice
 10
18.7
 20
68.35
 30
0
 40
0.200000000000003
 50
90
 51
180
  0
ARC
  5
0
  8
Slice
 10
20.7
 20
64.15
 30
0
 40
0.200000000000003
 50
90
 51
180
  0
LINE
  5
0
  8
Slice
 10
14.1
 20
64.35
 30
0
 11
13.7
 21
64.35
 31
0
  0
LINE
  5
0
  8
Slice
 10
16.7
 20
64.55
 30
0
 11
17.1
 21
64.55
 31
0
  0
LINE
  5
0
  8
Slice
 10
14.7
 20
47.05
 30
0
 11
15.1
 21
47.05
 31
0
  0
ARC
  5
0
  8
Slice
 10
20.1
 20
76.75
 30
0
 40
0.199999999999996
 50
0
 51
90
  0
LINE
  5
0
  8
Slice
 10
12.5
 20
50.85
 30
0
 11
12.5
 21
47.25
 31
0
  0
ARC
  5
0
  8
Slice
 10
14.7
 20
64.75
 30
0
 40
0.199999999999999
 50
180
 51
270
  0
LINE
  5
0
  8
Slice
 10
15.5
 20
46.65
 30
0
 11
15.5
 21
43.05
 31
0
  0
LINE
  5
0
  8
Slice
 10
20.7
 20
60.35
 30
0
 11
21.1
 21
60.35
 31
0
  0
LINE
  5
0
  8
Slice
 10
19.5
 20
76.75
 30
0
 11
19.5
 21
73.15
 31
0
  0
LINE
  5
0
  8
Slice
 10
17.7
 20
42.85
 30
0
 11
18.1
 21
42.85
 31
0
  0
ARC
  5
0
  8
Slice
 10
19.7
 20
76.75
 30
0
 40
0.200000000000003
 50
90
 51
180
  0
ARC
  5
0
  8
Slice
 10
18.1
 20
55.05
 30
0
 40
0.199999999999999
 50
0
 51
90
  0
ARC
  5
0
  8
Slice
 10
21.7
 20
68.95
 30
0
 40
0.199999999999999
 50
180
 51
270
  0
ARC
  5
0
  8
Slice
 10
21.7
 20
72.55
 30
0
 40
0.200000000000017
 50
90
 51
180
  0
ARC
  5
0
  8
Slice
 10
20.1
 20
64.75
 30
0
 40
0.200000000000003
 50
-90
 51
0
  0
ARC
  5
0
  8
Slice
 10
16.1
 20
51.45
 30
0
 40
0.200000000000003
 50
-90
 51
0
  0
LINE
  5
0
  8
Slice
 10
12.5
 20
76.75
 30
0
 11
12.5
 21
73.15
 31
0
  0
ARC
  5
0
  8
Slice
 10
12.7
 20
72.55
 30
0
 40
0.200000000000017
 50
90
 51
180
  0
ARC
  5
0
  8
Slice
 10
20.1
 20
73.15
 30
0
 40
0.200000000000003
 50
-90
 51
0
  0
LINE
  5
0
  8
Slice
 10
11.5
 20
72.55
 30
0
 11
11.5
 21
68.95
 31
0
  0
LINE
  5
0
  8
Slice
 10
14.5
 20
72.55
 30
0
 11
14.5
 21
68.95
 31
0
  0
LINE
  5
0
  8
Slice
 10
15.7
 20
55.45
 30
0
 11
16.1
 21
55.45
 31
0
  0
LINE
  5
0
  8
Slice
 10
21.3
 20
73.15
 30
0
 11
21.3
 21
76.75
 31
0
  0
LINE
  5
0
  8
Slice
 10
18.5
 20
64.15
 30
0
 11
18.5
 21
60.55
 31
0
  0
ARC
  5
0
  8
Slice
 10
18.1
 20
55.65
 30
0
 40
0.200000000000003
 50
-90
 51
0
  0
ARC
  5
0
  8
Slice
 10
20.7
 20
72.55
 30
0
 40
0.200000000000017
 50
90
 51
180
  0
LINE
  5
0
  8
Slice
 10
17.5
 20
64.15
 30
0
 11
17.5
 21
60.55
 31
0
  0
LINE
  5
0
  8
Slice
 10
21.5
 20
76.75
 30
0
 11
21.5
 21
73.15
 31
0
  0
LINE
  5
0
  8
Slice
 10
18.3
 20
68.95
 30
0
 11
18.3
 21
72.55
 31
0
  0
ARC
  5
0
  8
Slice
 10
21.7
 20
68.35
 30
0
 40
0.200000000000003
 50
90
 51
180
  0
LINE
  5
0
  8
Slice
 10
11.7
 20
42.85
 30
0
 11
12.1
 21
42.85
 31
0
  0
ARC
  5
0
  8
Slice
 10
16.1
 20
47.25
 30
0
 40
0.200000000000003
 50
-90
 51
0
  0
LINE
  5
0
  8
Slice
 10
18.1
 20
76.95
 30
0
 11
17.7
 21
76.95
 31
0
  0
LINE
  5
0
  8
Slice
 10
19.3
 20
60.55
 30
0
 11
19.3
 21
64.15
 31
0
  0
LINE
  5
0
  8
Slice
 10
16.1
 20
72.75
 30
0
 11
15.7
 21
72.75
 31
0
  0
ARC
  5
0
  8
Slice
 10
18.1
 20
72.55
 30
0
 40
0.199999999999999
 50
0
 51
90
  0
ARC
  5
0
  8
Slice
 10
17.1
 20
46.65
 30
0
 40
0.199999999999999
 50
0
 51
90
  0
ARC
  5
0
  8
Slice
 10
14.7
 20
55.05
 30
0
 40
0.200000000000003
 50
90
 51
180
  0
ARC
  5
0
  8
Slice
 10
15.7
 20
43.05
 30
0
 40
0.199999999999999
 50
180
 51
270
  0
ARC
  5
0
  8
Slice
 10
14.1
 20
68.35
 30
0
 40
0.200000000000001
 50
0
 51
90
  0
LINE
  5
0
  8
Slice
 10
15.1
 20
72.75
 30
0
 11
14.7
 21
72.75
 31
0
  0
ARC
  5
0
  8
Slice
 10
14.1
 20
55.65
 30
0
 40
0.200000000000003
 50
-90
 51
0
  0
ARC
  5
0
  8
Slice
 10
15.7
 20
68.35
 30
0
 40
0.200000000000003
 50
90
 51
180
  0
ARC
  5
0
  8
Slice
 10
16.7
 20
43.05
 30
0
 40
0.199999999999999
 50
180
 51
270
  0
ARC
  5
0
  8
Slice
 10
18.7
 20
73.15
 30
0
 40
0.199999999999999
 50
180
 51
270
  0
LINE
  5
0
  8
Slice
 10
22.1
 20
72.75
 30
0
 11
21.7
 21
72.75
 31
0
  0
ARC
  5
0
  8
Slice
 10
16.7
 20
76.75
 30
0
 40
0.200000000000003
 50
90
 51
180
  0
LINE
  5
0
  8
Slice
 10
17.1
 20
64.35
 30
0
 11
16.7
 21
64.35
 31
0
  0
ARC
  5
0
  8
Slice
 10
17.7
 20
50.85
 30
0
 40
0.200000000000003
 50
90
 51
180
  0
ARC
  5
0
  8
Slice
 10
19.1
 20
50.85
 30
0
 40
0.199999999999999
 50
0
 51
90
  0
ARC
  5
0
  8
Slice
 10
13.7
 20
64.75
 30
0
 40
0.200000000000001
 50
180
 51
270
  0
ARC
  5
0
  8
Slice
 10
16.7
 20
73.15
 30
0
 40
0.199999999999999
 50
180
 51
270
  0
LINE
  5
0
  8
Slice
 10
18.7
 20
47.05
 30
0
 11
19.1
 21
47.05
 31
0
  0
LINE
  5
0
  8
Slice
 10
14.1
 20
68.55
 30
0
 11
13.7
 21
68.55
 31
0
  0
LINE
  5
0
  8
Slice
 10
20.7
 20
72.95
 30
0
 11
21.1
 21
72.95
 31
0
  0
ARC
  5
0
  8
Slice
 10
15.7
 20
60.55
 30
0
 40
0.199999999999999
 50
180
 51
270
  0
ARC
  5
0
  8
Slice
 10
14.1
 20
60.55
 30
0
 40
0.200000000000003
 50
-90
 51
0
  0
ARC
  5
0
  8
Slice
 10
18.7
 20
47.25
 30
0
 40
0.199999999999999
 50
180
 51
270
  0
ARC
  5
0
  8
Slice
 10
21.1
 20
73.15
 30
0
 40
0.200000000000003
 50
-90
 51
0
  0
ARC
  5
0
  8
Slice
 10
12.7
 20
51.45
 30
0
 40
0.199999999999999
 50
180
 51
270
  0
ARC
  5
0
  8
Slice
 10
18.1
 20
73.15
 30
0
 40
0.200000000000003
 50
-90
 51
0
  0
LINE
  5
0
  8
Slice
 10
12.7
 20
64.55
 30
0
 11
13.1
 21
64.55
 31
0
  0
LINE
  5
0
  8
Slice
 10
13.1
 20
76.95
 30
0
 11
12.7
 21
76.95
 31
0
  0
LINE
  5
0
  8
Slice
 10
13.7
 20
42.35
 30
0
 11
14.1
 21
42.35
 31
0
  0
LINE
  5
0
  8
Slice
 10
12.1
 20
76.95
 30
0
 11
11.7
 21
76.95
 31
0
  0
ARC
  5
0
  8
Slice
 10
14.1
 20
64.15
 30
0
 40
0.200000000000001
 50
0
 51
90
  0
LINE
  5
0
  8
Slice
 10
15.1
 20
55.25
 30
0
 11
14.7
 21
55.25
 31
0
  0
ARC
  5
0
  8
Slice
 10
18.1
 20
43.05
 30
0
 40
0.200000000000003
 50
-90
 51
0
  0
LINE
  5
0
  8
Slice
 10
20.1
 20
76.95
 30
0
 11
19.7
 21
76.95
 31
0
  0
ARC
  5
0
  8
Slice
 10
15.1
 20
46.65
 30
0
 40
0.199999999999998
 50
0
 51
90
  0
LINE
  5
0
  8
Slice
 10
21.1
 20
72.75
 30
0
 11
20.7
 21
72.75
 31
0
  0
LINE
  5
0
  8
Slice
 10
16.3
 20
68.95
 30
0
 11
16.3
 21
72.55
 31
0
  0
ARC
  5
0
  8
Slice
 10
14.7
 20
59.25
 30
0
 40
0.200000000000003
 50
90
 51
180
  0
LINE
  5
0
  8
Slice
 10
12.3
 20
46.65
 30
0
 11
12.3
 21
43.05
 31
0
  0
ARC
  5
0
  8
Slice
 10
12.7
 20
47.25
 30
0
 40
0.199999999999999
 50
180
 51
270
  0
ARC
  5
0
  8
Slice
 10
12.7
 20
68.95
 30
0
 40
0.199999999999999
 50
180
 51
270
  0
LINE
  5
0
  8
Slice
 10
14.3
 20
68.95
 30
0
 11
14.3
 21
72.55
 31
0
  0
ARC
  5
0
  8
Slice
 10
11.7
 20
72.55
 30
0
 40
0.200000000000017
 50
90
 51
180
  0
ARC
  5
0
  8
Slice
 10
13.1
 20
55.65
 30
0
 40
0.200000000000003
 50
-90
 51
0
  0
ARC
  5
0
  8
Slice
 10
19.1
 20
55.65
 30
0
 40
0.200000000000003
 50
-90
 51
0
  0
ARC
  5
0
  8
Slice
 10
18.7
 20
50.85
 30
0
 40
0.200000000000003
 50
90
 51
180
  0
ARC
  5
0
  8
Slice
 10
11.7
 20
64.75
 30
0
 40
0.200000000000001
 50
180
 51
270
  0
LINE
  5
0
  8
Slice
 10
17.7
 20
68.75
 30
0
 11
18.1
 21
68.75
 31
0
  0
LINE
  5
0
  8
Slice
 10
18.3
 20
64.75
 30
0
 11
18.3
 21
68.35
 31
0
  0
LINE
  5
0
  8
Slice
 10
15.7
 20
68.75
 30
0
 11
16.1
 21
68.75
 31
0
  0
ARC
  5
0
  8
Slice
 10
16.7
 20
68.35
 30
0
 40
0.200000000000003
 50
90
 51
180
  0
LINE
  5
0
  8
Slice
 10
18.7
 20
68.75
 30
0
 11
19.1
 21
68.75
 31
0
  0
ARC
  5
0
  8
Slice
 10
16.7
 20
47.25
 30
0
 40
0.199999999999999
 50
180
 51
270
  0
ARC
  5
0
  8
Slice
 10
14.1
 20
50.85
 30
0
 40
0.200000000000001
 50
0
 51
90
  0
LINE
  5
0
  8
Slice
 10
16.1
 20
46.85
 30
0
 11
15.7
 21
46.85
 31
0
  0
LINE
  5
0
  8
Slice
 10
14.7
 20
42.85
 30
0
 11
15.1
 21
42.85
 31
0
  0
ARC
  5
0
  8
Slice
 10
14.7
 20
55.65
 30
0
 40
0.199999999999999
 50
180
 51
270
  0
LINE
  5
0
  8
Slice
 10
13.7
 20
64.55
 30
0
 11
14.1
 21
64.55
 31
0
  0
ARC
  5
0
  8
Slice
 10
17.1
 20
68.35
 30
0
 40
0.199999999999999
 50
0
 51
90
  0
ARC
  5
0
  8
Slice
 10
11.7
 20
68.35
 30
0
 40
0.200000000000003
 50
90
 51
180
  0
LINE
  5
0
  8
Slice
 10
16.3
 20
73.15
 30
0
 11
16.3
 21
76.75
 31
0
  0
LINE
  5
0
  8
Slice
 10
19.5
 20
72.55
 30
0
 11
19.5
 21
68.95
 31
0
  0
LINE
  5
0
  8
Slice
 10
18.5
 20
72.55
 30
0
 11
18.5
 21
68.95
 31
0
  0
LINE
  5
0
  8
Slice
 10
19.1
 20
46.85
 30
0
 11
18.7
 21
46.85
 31
0
  0
LINE
  5
0
  8
Slice
 10
18.3
 20
60.55
 30
0
 11
18.3
 21
64.15
 31
0
  0
LINE
  5
0
  8
Slice
 10
22.8
 20
77.3
 30
0
 11
22.8
 21
76.75
 31
0
  0
ARC
  5
0
  8
Slice
 10
17.7
 20
64.75
 30
0
 40
0.199999999999999
 50
180
 51
270
  0
LINE
  5
0
  8
Slice
 10
16.5
 20
64.15
 30
0
 11
16.5
 21
60.55
 31
0
  0
ARC
  5
0
  8
Slice
 10
14.7
 20
64.15
 30
0
 40
0.200000000000003
 50
90
 51
180
  0
LINE
  5
0
  8
Slice
 10
22.1
 20
64.35
 30
0
 11
21.7
 21
64.35
 31
0
  0
LINE
  5
0
  8
Slice
 10
21.5
 20
64.15
 30
0
 11
21.5
 21
60.55
 31
0
  0
ARC
  5
0
  8
Slice
 10
17.7
 20
55.05
 30
0
 40
0.200000000000003
 50
90
 51
180
  0
LINE
  5
0
  8
Slice
 10
12.5
 20
64.15
 30
0
 11
12.5
 21
60.55
 31
0
  0
LINE
  5
0
  8
Slice
 10
16.3
 20
60.55
 30
0
 11
16.3
 21
64.15
 31
0
  0
ARC
  5
0
  8
Slice
 10
16.1
 20
43.05
 30
0
 40
0.200000000000003
 50
-90
 51
0
  0
LINE
  5
0
  8
Slice
 10
13.1
 20
64.35
 30
0
 11
12.7
 21
64.35
 31
0
  0
ARC
  5
0
  8
Slice
 10
16.1
 20
68.95
 30
0
 40
0.200000000000017
 50
-90
 51
0
  0
LINE
  5
0
  8
Slice
 10
15.5
 20
68.35
 30
0
 11
15.5
 21
64.75
 31
0
  0
ARC
  5
0
  8
Slice
 10
17.7
 20
43.05
 30
0
 40
0.199999999999999
 50
180
 51
270
  0
ARC
  5
0
  8
Slice
 10
21.7
 20
73.15
 30
0
 40
0.199999999999999
 50
180
 51
270
  0
LINE
  5
0
  8
Slice
 10
15.3
 20
60.55
 30
0
 11
15.3
 21
64.15
 31
0
  0
LINE
  5
0
  8
Slice
 10
19.3
 20
73.15
 30
0
 11
19.3
 21
76.75
 31
0
  0
LINE
  5
0
  8
Slice
 10
13.5
 20
68.35
 30
0
 11
13.5
 21
64.75
 31
0
  0
ARC
  5
0
  8
Slice
 10
14.1
 20
59.25
 30
0
 40
0.200000000000001
 50
0
 51
90
  0
LINE
  5
0
  8
Slice
 10
15.1
 20
68.55
 30
0
 11
14.7
 21
68.55
 31
0
  0
ARC
  5
0
  8
Slice
 10
22.1
 20
64.15
 30
0
 40
0.199999999999999
 50
0
 51
90
  0
ARC
  5
0
  8
Slice
 10
17.1
 20
64.15
 30
0
 40
0.199999999999999
 50
0
 51
90
  0
LINE
  5
0
  8
Slice
 10
16.3
 20
47.25
 30
0
 11
16.3
 21
50.85
 31
0
  0
ARC
  5
0
  8
Slice
 10
14.1
 20
51.45
 30
0
 40
0.200000000000003
 50
-90
 51
0
  0
LINE
  5
0
  8
Slice
 10
16.5
 20
72.55
 30
0
 11
16.5
 21
68.95
 31
0
  0
ARC
  5
0
  8
Slice
 10
12.1
 20
68.35
 30
0
 40
0.200000000000001
 50
0
 51
90
  0
LINE
  5
0
  8
Slice
 10
20.5
 20
76.75
 30
0
 11
20.5
 21
73.15
 31
0
  0
LINE
  5
0
  8
Slice
 10
20.3
 20
73.15
 30
0
 11
20.3
 21
76.75
 31
0
  0
LINE
  5
0
  8
Slice
 10
13.5
 20
64.15
 30
0
 11
13.5
 21
60.55
 31
0
  0
LINE
  5
0
  8
Slice
 10
20.5
 20
64.15
 30
0
 11
20.5
 21
60.55
 31
0
  0
LINE
  5
0
  8
Slice
 10
21.3
 20
60.55
 30
0
 11
21.3
 21
64.15
 31
0
  0
LINE
  5
0
  8
Slice
 10
15.7
 20
64.55
 30
0
 11
16.1
 21
64.55
 31
0
  0
LINE
  5
0
  8
Slice
 10
22.1
 20
76.95
 30
0
 11
21.7
 21
76.95
 31
0
  0
ARC
  5
0
  8
Slice
 10
19.7
 20
60.55
 30
0
 40
0.199999999999999
 50
180
 51
270
  0
LINE
  5
0
  8
Slice
 10
17.5
 20
55.05
 30
0
 11
17.5
 21
51.45
 31
0
  0
LINE
  5
0
  8
Slice
 10
21.7
 20
72.95
 30
0
 11
22.1
 21
72.95
 31
0
  0
ARC
  5
0
  8
Slice
 10
19.1
 20
47.25
 30
0
 40
0.200000000000003
 50
-90
 51
0
  0
ARC
  5
0
  8
Slice
 10
19.7
 20
73.15
 30
0
 40
0.199999999999999
 50
180
 51
270
  0
ARC
  5
0
  8
Slice
 10
16.1
 20
64.15
 30
0
 40
0.199999999999996
 50
0
 51
90
  0
ARC
  5
0
  8
Slice
 10
17.7
 20
73.15
 30
0
 40
0.199999999999999
 50
180
 51
270
  0
ARC
  5
0
  8
Slice
 10
13.1
 20
68.35
 30
0
 40
0.199999999999998
 50
0
 51
90
  0
ARC
  5
0
  8
Slice
 10
19.7
 20
68.35
 30
0
 40
0.200000000000003
 50
90
 51
180
  0
LINE
  5
0
  8
Slice
 10
18.7
 20
64.55
 30
0
 11
19.1
 21
64.55
 31
0
  0
LINE
  5
0
  8
Slice
 10
22.3
 20
73.15
 30
0
 11
22.3
 21
76.75
 31
0
  0
ARC
  5
0
  8
Slice
 10
15.1
 20
50.85
 30
0
 40
0.199999999999998
 50
0
 51
90
  0
ARC
  5
0
  8
Slice
 10
22.1
 20
64.75
 30
0
 40
0.200000000000003
 50
-90
 51
0
  0
LINE
  5
0
  8
Slice
 10
15.7
 20
42.85
 30
0
 11
16.1
 21
42.85
 31
0
  0
LINE
  5
0
  8
Slice
 10
13.1
 20
55.25
 30
0
 11
12.7
 21
55.25
 31
0
  0
LINE
  5
0
  8
Slice
 10
11.7
 20
60.35
 30
0
 11
12.1
 21
60.35
 31
0
  0
ARC
  5
0
  8
Slice
 10
14.7
 20
51.45
 30
0
 40
0.199999999999999
 50
180
 51
270
  0
LINE
  5
0
  8
Slice
 10
20.1
 20
64.35
 30
0
 11
19.7
 21
64.35
 31
0
  0
LINE
  5
0
  8
Slice
 10
14.7
 20
60.35
 30
0
 11
15.1
 21
60.35
 31
0
  0
LINE
  5
0
  8
Slice
 10
17.3
 20
64.75
 30
0
 11
17.3
 21
68.35
 31
0
  0
ARC
  5
0
  8
Slice
 10
12.1
 20
46.65
 30
0
 40
0.200000000000001
 50
0
 51
90
  0
ARC
  5
0
  8
Slice
 10
17.7
 20
59.25
 30
0
 40
0.200000000000003
 50
90
 51
180
  0
LINE
  5
0
  8
Slice
 10
13.3
 20
51.45
 30
0
 11
13.3
 21
55.05
 31
0
  0
ARC
  5
0
  8
Slice
 10
15.1
 20
64.15
 30
0
 40
0.199999999999998
 50
0
 51
90
  0
ARC
  5
0
  8
Slice
 10
20.1
 20
64.15
 30
0
 40
0.199999999999996
 50
0
 51
90
  0
ARC
  5
0
  8
Slice
 10
15.7
 20
73.15
 30
0
 40
0.199999999999999
 50
180
 51
270
  0
LINE
  5
0
  8
Slice
 10
19.3
 20
55.65
 30
0
 11
19.3
 21
59.25
 31
0
  0
LINE
  5
0
  8
Slice
 10
11.7
 20
47.05
 30
0
 11
12.1
 21
47.05
 31
0
  0
LINE
  5
0
  8
Slice
 10
12.1
 20
55.25
 30
0
 11
11.7
 21
55.25
 31
0
  0
ARC
  5
0
  8
Slice
 10
15.1
 20
68.35
 30
0
 40
0.199999999999998
 50
0
 51
90
  0
ARC
  5
0
  8
Slice
 10
13.1
 20
51.45
 30
0
 40
0.200000000000003
 50
-90
 51
0
  0
LINE
  5
0
  8
Slice
 10
15.3
 20
47.25
 30
0
 11
15.3
 21
50.85
 31
0
  0
LINE
  5
0
  8
Slice
 10
19.1
 20
55.25
 30
0
 11
18.7
 21
55.25
 31
0
  0
LINE
  5
0
  8
Slice
 10
17.3
 20
60.55
 30
0
 11
17.3
 21
64.15
 31
0
  0
LINE
  5
0
  8
Slice
 10
12.7
 20
42.85
 30
0
 11
13.1
 21
42.85
 31
0
  0
ARC
  5
0
  8
Slice
 10
13.7
 20
64.15
 30
0
 40
0.200000000000003
 50
90
 51
180
  0
ARC
  5
0
  8
Slice
 10
12.7
 20
50.85
 30
0
 40
0.200000000000003
 50
90
 51
180
  0
LINE
  5
0
  8
Slice
 10
14.3
 20
47.25
 30
0
 11
14.3
 21
50.85
 31
0
  0
LINE
  5
0
  8
Slice
 10
18.1
 20
64.35
 30
0
 11
17.7
 21
64.35
 31
0
  0
ARC
  5
0
  8
Slice
 10
14.7
 20
50.85
 30
0
 40
0.200000000000003
 50
90
 51
180
  0
LINE
  5
0
  8
Slice
 10
11.7
 20
51.25
 30
0
 11
12.1
 21
51.25
 31
0
  0
LINE
  5
0
  8
Slice
 10
15.3
 20
43.05
 30
0
 11
15.3
 21
46.65
 31
0
  0
LINE
  5
0
  8
Slice
 10
15.1
 20
64.35
 30
0
 11
14.7
 21
64.35
 31
0
  0
ARC
  5
0
  8
Slice
 10
12.1
 20
68.95
 30
0
 40
0.200000000000017
 50
-90
 51
0
  0
LINE
  5
0
  8
Slice
 10
11.7
 20
55.45
 30
0
 11
12.1
 21
55.45
 31
0
  0
ARC
  5
0
  8
Slice
 10
21.1
 20
64.15
 30
0
 40
0.199999999999999
 50
0
 51
90
  0
LINE
  5
0
  8
Slice
 10
13.1
 20
72.75
 30
0
 11
12.7
 21
72.75
 31
0
  0
ARC
  5
0
  8
Slice
 10
13.1
 20
43.05
 30
0
 40
0.200000000000003
 50
-90
 51
0
  0
LINE
  5
0
  8
Slice
 10
12.3
 20
68.35
 30
0
 11
12.3
 21
64.75
 31
0
  0
ARC
  5
0
  8
Slice
 10
12.1
 20
72.55
 30
0
 40
0.200000000000001
 50
0
 51
90
  0
ARC
  5
0
  8
Slice
 10
14.7
 20
68.35
 30
0
 40
0.200000000000003
 50
90
 51
180
  0
LINE
  5
0
  8
Slice
 10
22.3
 20
68.95
 30
0
 11
22.3
 21
72.55
 31
0
  0
ARC
  5
0
  8
Slice
 10
18.7
 20
64.75
 30
0
 40
0.199999999999999
 50
180
 51
270
  0
ARC
  5
0
  8
Slice
 10
16.7
 20
55.65
 30
0
 40
0.199999999999999
 50
180
 51
270
  0
ARC
  5
0
  8
Slice
 10
21.7
 20
64.75
 30
0
 40
0.199999999999999
 50
180
 51
270
  0
ARC
  5
0
  8
Slice
 10
19.1
 20
43.05
 30
0
 40
0.200000000000003
 50
-90
 51
0
  0
LINE
  5
0
  8
Slice
 10
14.5
 20
46.65
 30
0
 11
14.5
 21
43.05
 31
0
  0
ARC
  5
0
  8
Slice
 10
12.1
 20
64.75
 30
0
 40
0.200000000000003
 50
-90
 51
0
  0
ARC
  5
0
  8
Slice
 10
17.7
 20
76.75
 30
0
 40
0.200000000000003
 50
90
 51
180
  0
ARC
  5
0
  8
Slice
 10
13.1
 20
68.95
 30
0
 40
0.200000000000017
 50
-90
 51
0
  0
LINE
  5
0
  8
Slice
 10
18.7
 20
55.45
 30
0
 11
19.1
 21
55.45
 31
0
  0
ARC
  5
0
  8
Slice
 10
12.7
 20
64.75
 30
0
 40
0.199999999999999
 50
180
 51
270
  0
ARC
  5
0
  8
Slice
 10
16.7
 20
72.55
 30
0
 40
0.200000000000017
 50
90
 51
180
  0
ARC
  5
0
  8
Slice
 10
15.7
 20
55.65
 30
0
 40
0.199999999999999
 50
180
 51
270
  0
ARC
  5
0
  8
Slice
 10
22.1
 20
68.95
 30
0
 40
0.200000000000017
 50
-90
 51
0
  0
ARC
  5
0
  8
Slice
 10
15.1
 20
47.25
 30
0
 40
0.200000000000003
 50
-90
 51
0
  0
ARC
  5
0
  8
Slice
 10
15.7
 20
51.45
 30
0
 40
0.199999999999999
 50
180
 51
270
  0
LINE
  5
0
  8
Slice
 10
13.7
 20
72.95
 30
0
 11
14.1
 21
72.95
 31
0
  0
ARC
  5
0
  8
Slice
 10
17.7
 20
51.45
 30
0
 40
0.199999999999999
 50
180
 51
270
  0
ARC
  5
0
  8
Slice
 10
15.1
 20
43.05
 30
0
 40
0.200000000000003
 50
-90
 51
0
  0
LINE
  5
0
  8
Slice
 10
15.1
 20
46.85
 30
0
 11
14.7
 21
46.85
 31
0
  0
ARC
  5
0
  8
Slice
 10
20.7
 20
68.95
 30
0
 40
0.199999999999999
 50
180
 51
270
  0
LINE
  5
0
  8
Slice
 10
20.1
 20
72.75
 30
0
 11
19.7
 21
72.75
 31
0
  0
LINE
  5
0
  8
Slice
 10
14.7
 20
55.45
 30
0
 11
15.1
 21
55.45
 31
0
  0
ARC
  5
0
  8
Slice
 10
11.7
 20
59.25
 30
0
 40
0.200000000000003
 50
90
 51
180
  0
LINE
  5
0
  8
Slice
 10
15.5
 20
72.55
 30
0
 11
15.5
 21
68.95
 31
0
  0
LINE
  5
0
  8
Slice
 10
13.3
 20
64.75
 30
0
 11
13.3
 21
68.35
 31
0
  0
ARC
  5
0
  8
Slice
 10
19.1
 20
76.75
 30
0
 40
0.199999999999999
 50
0
 51
90
  0
LINE
  5
0
  8
Slice
 10
18.1
 20
46.85
 30
0
 11
17.7
 21
46.85
 31
0
  0
LINE
  5
0
  8
Slice
 10
15.3
 20
73.15
 30
0
 11
15.3
 21
76.75
 31
0
  0
ARC
  5
0
  8
Slice
 10
17.1
 20
55.05
 30
0
 40
0.199999999999999
 50
0
 51
90
  0
LINE
  5
0
  8
Slice
 10
17.3
 20
47.25
 30
0
 11
17.3
 21
50.85
 31
0
  0
LINE
  5
0
  8
Slice
 10
18.1
 20
51.05
 30
0
 11
17.7
 21
51.05
 31
0
  0
LINE
  5
0
  8
Slice
 10
14.5
 20
55.05
 30
0
 11
14.5
 21
51.45
 31
0
  0
LINE
  5
0
  8
Slice
 10
12.3
 20
76.75
 30
0
 11
12.3
 21
73.15
 31
0
  0
LINE
  5
0
  8
Slice
 10
19.1
 20
51.05
 30
0
 11
18.7
 21
51.05
 31
0
  0
LINE
  5
0
  8
Slice
 10
12.5
 20
72.55
 30
0
 11
12.5
 21
68.95
 31
0
  0
LINE
  5
0
  8
Slice
 10
20.7
 20
68.75
 30
0
 11
21.1
 21
68.75
 31
0
  0
ARC
  5
0
  8
Slice
 10
19.1
 20
68.35
 30
0
 40
0.199999999999999
 50
0
 51
90
  0
LINE
  5
0
  8
Slice
 10
19.7
 20
64.55
 30
0
 11
20.1
 21
64.55
 31
0
  0
ARC
  5
0
  8
Slice
 10
20.7
 20
64.75
 30
0
 40
0.199999999999999
 50
180
 51
270
  0
ARC
  5
0
  8
Slice
 10
16.1
 20
68.35
 30
0
 40
0.199999999999996
 50
0
 51
90
  0
ARC
  5
0
  8
Slice
 10
15.7
 20
47.25
 30
0
 40
0.199999999999999
 50
180
 51
270
  0
ARC
  5
0
  8
Slice
 10
20.7
 20
76.75
 30
0
 40
0.200000000000003
 50
90
 51
180
  0
LINE
  5
0
  8
Slice
 10
16.5
 20
55.05
 30
0
 11
16.5
 21
51.45
 31
0
  0
ARC
  5
0
  8
Slice
 10
18.7
 20
55.65
 30
0
 40
0.199999999999999
 50
180
 51
270
  0
LINE
  5
0
  8
Slice
 10
12.7
 20
68.75
 30
0
 11
13.1
 21
68.75
 31
0
  0
LINE
  5
0
  8
Slice
 10
16.7
 20
55.45
 30
0
 11
17.1
 21
55.45
 31
0
  0
LINE
  5
0
  8
Slice
 10
16.3
 20
51.45
 30
0
 11
16.3
 21
55.05
 31
0
  0
ARC
  5
0
  8
Slice
 10
13.1
 20
55.05
 30
0
 40
0.199999999999998
 50
0
 51
90
  0
LINE
  5
0
  8
Slice
 10
17.5
 20
50.85
 30
0
 11
17.5
 21
47.25
 31
0
  0
LINE
  5
0
  8
Slice
 10
12.1
 20
51.05
 30
0
 11
11.7
 21
51.05
 31
0
  0
ARC
  5
0
  8
Slice
 10
16.7
 20
64.15
 30
0
 40
0.200000000000003
 50
90
 51
180
  0
ARC
  5
0
  8
Slice
 10
15.7
 20
64.15
 30
0
 40
0.200000000000003
 50
90
 51
180
  0
LINE
  5
0
  8
Slice
 10
12.5
 20
55.05
 30
0
 11
12.5
 21
51.45
 31
0
  0
LINE
  5
0
  8
Slice
 10
13.3
 20
60.55
 30
0
 11
13.3
 21
64.15
 31
0
  0
ARC
  5
0
  8
Slice
 10
19.7
 20
64.15
 30
0
 40
0.200000000000003
 50
90
 51
180
  0
LINE
  5
0
  8
Slice
 10
17.1
 20
46.85
 30
0
 11
16.7
 21
46.85
 31
0
  0
LINE
  5
0
  8
Slice
 10
13.5
 20
46.65
 30
0
 11
13.5
 21
43.05
 31
0
  0
LINE
  5
0
  8
Slice
 10
13.3
 20
47.25
 30
0
 11
13.3
 21
50.85
 31
0
  0
LINE
  5
0
  8
Slice
 10
13.7
 20
47.05
 30
0
 11
14.1
 21
47.05
 31
0
  0
ARC
  5
0
  8
Slice
 10
15.1
 20
55.65
 30
0
 40
0.200000000000003
 50
-90
 51
0
  0
LINE
  5
0
  8
Slice
 10
19.3
 20
47.25
 30
0
 11
19.3
 21
50.85
 31
0
  0
ARC
  5
0
  8
Slice
 10
13.1
 20
64.75
 30
0
 40
0.200000000000003
 50
-90
 51
0
  0
LINE
  5
0
  8
Slice
 10
14.1
 20
51.05
 30
0
 11
13.7
 21
51.05
 31
0
  0
LINE
  5
0
  8
Slice
 10
13.1
 20
46.85
 30
0
 11
12.7
 21
46.85
 31
0
  0
LINE
  5
0
  8
Slice
 10
18.7
 20
51.25
 30
0
 11
19.1
 21
51.25
 31
0
  0
ARC
  5
0
  8
Slice
 10
14.7
 20
43.05
 30
0
 40
0.199999999999999
 50
180
 51
270
  0
ARC
  5
0
  8
Slice
 10
12.7
 20
55.05
 30
0
 40
0.200000000000003
 50
90
 51
180
  0
ARC
  5
0
  8
Slice
 10
16.1
 20
46.65
 30
0
 40
0.199999999999996
 50
0
 51
90
  0
ARC
  5
0
  8
Slice
 10
13.1
 20
47.25
 30
0
 40
0.200000000000003
 50
-90
 51
0
  0
ARC
  5
0
  8
Slice
 10
18.7
 20
76.75
 30
0
 40
0.200000000000003
 50
90
 51
180
  0
LINE
  5
0
  8
Slice
 10
16.3
 20
43.05
 30
0
 11
16.3
 21
46.65
 31
0
  0
ARC
  5
0
  8
Slice
 10
22.1
 20
72.55
 30
0
 40
0.199999999999999
 50
0
 51
90
  0
ARC
  5
0
  8
Slice
 10
21.1
 20
68.35
 30
0
 40
0.199999999999999
 50
0
 51
90
  0
LINE
  5
0
  8
Slice
 10
19.1
 20
76.95
 30
0
 11
18.7
 21
76.95
 31
0
  0
LINE
  5
0
  8
Slice
 10
13.7
 20
42.35
 30
0
 11
11.0000000000001
 21
42.35
 31
0
  0
ARC
  5
0
  8
Slice
 10
20.1
 20
72.55
 30
0
 40
0.199999999999996
 50
0
 51
90
  0
LINE
  5
0
  8
Slice
 10
13.3
 20
68.95
 30
0
 11
13.3
 21
72.55
 31
0
  0
ARC
  5
0
  8
Slice
 10
19.1
 20
72.55
 30
0
 40
0.199999999999999
 50
0
 51
90
  0
LINE
  5
0
  8
Slice
 10
14.7
 20
72.95
 30
0
 11
15.1
 21
72.95
 31
0
  0
LINE
  5
0
  8
Slice
 10
11.5
 20
50.85
 30
0
 11
11.5
 21
47.25
 31
0
  0
ARC
  5
0
  8
Slice
 10
16.7
 20
46.65
 30
0
 40
0.200000000000003
 50
90
 51
180
  0
LINE
  5
0
  8
Slice
 10
15.7
 20
47.05
 30
0
 11
16.1
 21
47.05
 31
0
  0
ARC
  5
0
  8
Slice
 10
19.1
 20
46.65
 30
0
 40
0.199999999999999
 50
0
 51
90
  0
LINE
  5
0
  8
Slice
 10
21.7
 20
64.55
 30
0
 11
22.1
 21
64.55
 31
0
  0
ARC
  5
0
  8
Slice
 10
15.1
 20
55.05
 30
0
 40
0.199999999999998
 50
0
 51
90
  0
LINE
  5
0
  8
Slice
 10
12.7
 20
55.45
 30
0
 11
13.1
 21
55.45
 31
0
  0
LINE
  5
0
  8
Slice
 10
13.7
 20
68.75
 30
0
 11
14.1
 21
68.75
 31
0
  0
LINE
  5
0
  8
Slice
 10
16.5
 20
68.35
 30
0
 11
16.5
 21
64.75
 31
0
  0
LINE
  5
0
  8
Slice
 10
13.3
 20
73.15
 30
0
 11
13.3
 21
76.75
 31
0
  0
LINE
  5
0
  8
Slice
 10
12.3
 20
55.05
 30
0
 11
12.3
 21
51.45
 31
0
  0
LINE
  5
0
  8
Slice
 10
17.7
 20
55.45
 30
0
 11
18.1
 21
55.45
 31
0
  0
LINE
  5
0
  8
Slice
 10
14.1
 20
59.85
 30
0
 11
22.8
 21
59.85
 31
0
  0
ARC
  5
0
  8
Slice
 10
12.7
 20
46.65
 30
0
 40
0.200000000000003
 50
90
 51
180
  0
ARC
  5
0
  8
Slice
 10
19.7
 20
72.55
 30
0
 40
0.200000000000017
 50
90
 51
180
  0
ARC
  5
0
  8
Slice
 10
13.7
 20
50.85
 30
0
 40
0.200000000000003
 50
90
 51
180
  0
LINE
  5
0
  8
Slice
 10
11.5
 20
68.35
 30
0
 11
11.5
 21
64.75
 31
0
  0
LINE
  5
0
  8
Slice
 10
14.7
 20
64.55
 30
0
 11
15.1
 21
64.55
 31
0
  0
ARC
  5
0
  8
Slice
 10
21.7
 20
76.75
 30
0
 40
0.200000000000003
 50
90
 51
180
  0
LINE
  5
0
  8
Slice
 10
11.5
 20
46.65
 30
0
 11
11.5
 21
43.05
 31
0
  0
ARC
  5
0
  8
Slice
 10
17.1
 20
72.55
 30
0
 40
0.199999999999999
 50
0
 51
90
  0
ARC
  5
0
  8
Slice
 10
16.1
 20
59.25
 30
0
 40
0.199999999999996
 50
0
 51
90
  0
LINE
  5
0
  8
Slice
 10
15.3
 20
64.75
 30
0
 11
15.3
 21
68.35
 31
0
  0
LINE
  5
0
  8
Slice
 10
17.7
 20
47.05
 30
0
 11
18.1
 21
47.05
 31
0
  0
LINE
  5
0
  8
Slice
 10
16.7
 20
72.95
 30
0
 11
17.1
 21
72.95
 31
0
  0
LINE
  5
0
  8
Slice
 10
21.5
 20
72.55
 30
0
 11
21.5
 21
68.95
 31
0
  0
ARC
  5
0
  8
Slice
 10
12.7
 20
68.35
 30
0
 40
0.200000000000003
 50
90
 51
180
  0
LINE
  5
0
  8
Slice
 10
11.7
 20
68.75
 30
0
 11
12.1
 21
68.75
 31
0
  0
LINE
  5
0
  8
Slice
 10
17.7
 20
51.25
 30
0
 11
18.1
 21
51.25
 31
0
  0
ARC
  5
0
  8
Slice
 10
17.1
 20
64.75
 30
0
 40
0.200000000000003
 50
-90
 51
0
  0
ARC
  5
0
  8
Slice
 10
11.7
 20
68.95
 30
0
 40
0.200000000000001
 50
180
 51
270
  0
ARC
  5
0
  8
Slice
 10
13.7
 20
72.55
 30
0
 40
0.200000000000017
 50
90
 51
180
  0
ARC
  5
0
  8
Slice
 10
13.7
 20
47.25
 30
0
 40
0.200000000000001
 50
180
 51
270
  0
ARC
  5
0
  8
Slice
 10
17.1
 20
76.75
 30
0
 40
0.199999999999999
 50
0
 51
90
  0
LINE
  5
0
  8
Slice
 10
21.7
 20
68.75
 30
0
 11
22.1
 21
68.75
 31
0
  0
ARC
  5
0
  8
Slice
 10
13.1
 20
59.25
 30
0
 40
0.199999999999998
 50
0
 51
90
  0
ARC
  5
0
  8
Slice
 10
19.1
 20
64.15
 30
0
 40
0.199999999999999
 50
0
 51
90
  0
LINE
  5
0
  8
Slice
 10
12.5
 20
46.65
 30
0
 11
12.5
 21
43.05
 31
0
  0
LINE
  5
0
  8
Slice
 10
17.1
 20
72.75
 30
0
 11
16.7
 21
72.75
 31
0
  0
ARC
  5
0
  8
Slice
 10
22.1
 20
73.15
 30
0
 40
0.200000000000003
 50
-90
 51
0
  0
LINE
  5
0
  8
Slice
 10
21.1
 20
64.35
 30
0
 11
20.7
 21
64.35
 31
0
  0
LINE
  5
0
  8
Slice
 10
14.3
 20
51.45
 30
0
 11
14.3
 21
55.05
 31
0
  0
ARC
  5
0
  8
Slice
 10
21.1
 20
64.75
 30
0
 40
0.200000000000003
 50
-90
 51
0
  0
LINE
  5
0
  8
Slice
 10
12.3
 20
64.15
 30
0
 11
12.3
 21
60.55
 31
0
  0
LINE
  5
0
  8
Slice
 10
17.1
 20
55.25
 30
0
 11
16.7
 21
55.25
 31
0
  0
LINE
  5
0
  8
Slice
 10
17.7
 20
72.95
 30
0
 11
18.1
 21
72.95
 31
0
  0
LINE
  5
0
  8
Slice
 10
16.7
 20
51.25
 30
0
 11
17.1
 21
51.25
 31
0
  0
LINE
  5
0
  8
Slice
 10
15.7
 20
51.25
 30
0
 11
16.1
 21
51.25
 31
0
  0
ARC
  5
0
  8
Slice
 10
13.7
 20
46.65
 30
0
 40
0.200000000000003
 50
90
 51
180
  0
ARC
  5
0
  8
Slice
 10
18.1
 20
59.25
 30
0
 40
0.199999999999999
 50
0
 51
90
  0
ARC
  5
0
  8
Slice
 10
18.1
 20
47.25
 30
0
 40
0.200000000000003
 50
-90
 51
0
  0
LINE
  5
0
  8
Slice
 10
17.1
 20
51.05
 30
0
 11
16.7
 21
51.05
 31
0
  0
LINE
  5
0
  8
Slice
 10
19.7
 20
72.95
 30
0
 11
20.1
 21
72.95
 31
0
  0
ARC
  5
0
  8
Slice
 10
16.7
 20
59.25
 30
0
 40
0.200000000000003
 50
90
 51
180
  0
ARC
  5
0
  8
Slice
 10
17.7
 20
46.65
 30
0
 40
0.200000000000003
 50
90
 51
180
  0
ARC
  5
0
  8
Slice
 10
20.7
 20
68.35
 30
0
 40
0.200000000000003
 50
90
 51
180
  0
LINE
  5
0
  8
Slice
 10
14.5
 20
68.35
 30
0
 11
14.5
 21
64.75
 31
0
  0
ARC
  5
0
  8
Slice
 10
19.7
 20
64.75
 30
0
 40
0.199999999999999
 50
180
 51
270
  0
LINE
  5
0
  8
Slice
 10
18.7
 20
72.95
 30
0
 11
19.1
 21
72.95
 31
0
  0
ARC
  5
0
  8
Slice
 10
13.7
 20
55.05
 30
0
 40
0.200000000000003
 50
90
 51
180
  0
ARC
  5
0
  8
Slice
 10
15.7
 20
76.75
 30
0
 40
0.200000000000003
 50
90
 51
180
  0
LINE
  5
0
  8
Slice
 10
11.7
 20
64.55
 30
0
 11
12.1
 21
64.55
 31
0
  0
LINE
  5
0
  8
Slice
 10
14.3
 20
64.75
 30
0
 11
14.3
 21
68.35
 31
0
  0
LINE
  5
0
  8
Slice
 10
17.5
 20
76.75
 30
0
 11
17.5
 21
73.15
 31
0
  0
LINE
  5
0
  8
Slice
 10
13.5
 20
50.85
 30
0
 11
13.5
 21
47.25
 31
0
  0
LINE
  5
0
  8
Slice
 10
17.7
 20
64.55
 30
0
 11
18.1
 21
64.55
 31
0
  0
LINE
  5
0
  8
Slice
 10
16.7
 20
47.05
 30
0
 11
17.1
 21
47.05
 31
0
  0
LINE
  5
0
  8
Slice
 10
16.1
 20
76.95
 30
0
 11
15.7
 21
76.95
 31
0
  0
LINE
  5
0
  8
Slice
 10
14.5
 20
50.85
 30
0
 11
14.5
 21
47.25
 31
0
  0
LINE
  5
0
  8
Slice
 10
18.5
 20
55.05
 30
0
 11
18.5
 21
51.45
 31
0
  0
LINE
  5
0
  8
Slice
 10
19.3
 20
43.05
 30
0
 11
19.3
 21
46.65
 31
0
  0
ARC
  5
0
  8
Slice
 10
14.1
 20
46.65
 30
0
 40
0.200000000000001
 50
0
 51
90
  0
LINE
  5
0
  8
Slice
 10
18.5
 20
46.65
 30
0
 11
18.5
 21
43.05
 31
0
  0
ARC
  5
0
  8
Slice
 10
17.7
 20
47.25
 30
0
 40
0.199999999999999
 50
180
 51
270
  0
LINE
  5
0
  8
Slice
 10
14.1
 20
55.25
 30
0
 11
13.7
 21
55.25
 31
0
  0
LINE
  5
0
  8
Slice
 10
15.5
 20
76.75
 30
0
 11
15.5
 21
73.15
 31
0
  0
LINE
  5
0
  8
Slice
 10
20.7
 20
64.55
 30
0
 11
21.1
 21
64.55
 31
0
  0
LINE
  5
0
  8
Slice
 10
18.1
 20
72.75
 30
0
 11
17.7
 21
72.75
 31
0
  0
LINE
  5
0
  8
Slice
 10
18.3
 20
43.05
 30
0
 11
18.3
 21
46.65
 31
0
  0
ARC
  5
0
  8
Slice
 10
18.7
 20
51.45
 30
0
 40
0.199999999999999
 50
180
 51
270
  0
LINE
  5
0
  8
Slice
 10
16.5
 20
50.85
 30
0
 11
16.5
 21
47.25
 31
0
  0
ARC
  5
0
  8
Slice
 10
15.1
 20
72.55
 30
0
 40
0.199999999999998
 50
0
 51
90
  0
LINE
  5
0
  8
Slice
 10
13.5
 20
55.05
 30
0
 11
13.5
 21
51.45
 31
0
  0
LINE
  5
0
  8
Slice
 10
18.1
 20
55.25
 30
0
 11
17.7
 21
55.25
 31
0
  0
ARC
  5
0
  8
Slice
 10
19.1
 20
73.15
 30
0
 40
0.200000000000003
 50
-90
 51
0
  0
ARC
  5
0
  8
Slice
 10
13.1
 20
46.65
 30
0
 40
0.199999999999998
 50
0
 51
90
  0
ARC
  5
0
  8
Slice
 10
20.7
 20
73.15
 30
0
 40
0.199999999999999
 50
180
 51
270
  0
ARC
  5
0
  8
Slice
 10
20.1
 20
68.35
 30
0
 40
0.199999999999996
 50
0
 51
90
  0
LINE
  5
0
  8
Slice
 10
16.5
 20
76.75
 30
0
 11
16.5
 21
73.15
 31
0
  0
ARC
  5
0
  8
Slice
 10
16.1
 20
64.75
 30
0
 40
0.200000000000003
 50
-90
 51
0
  0
LINE
  5
0
  8
Slice
 10
15.7
 20
72.95
 30
0
 11
16.1
 21
72.95
 31
0
  0
LINE
  5
0
  8
Slice
 10
12.7
 20
72.95
 30
0
 11
13.1
 21
72.95
 31
0
  0
ARC
  5
0
  8
Slice
 10
11.7
 20
73.15
 30
0
 40
0.200000000000001
 50
180
 51
270
  0
ARC
  5
0
  8
Slice
 10
16.1
 20
60.55
 30
0
 40
0.200000000000003
 50
-90
 51
0
  0
ARC
  5
0
  8
Slice
 10
18.7
 20
64.15
 30
0
 40
0.200000000000003
 50
90
 51
180
  0
LINE
  5
0
  8
Slice
 10
20.5
 20
72.55
 30
0
 11
20.5
 21
68.95
 31
0
  0
LINE
  5
0
  8
Slice
 10
12.1
 20
72.75
 30
0
 11
11.7
 21
72.75
 31
0
  0
ARC
  5
0
  8
Slice
 10
16.7
 20
68.95
 30
0
 40
0.199999999999999
 50
180
 51
270
  0
LINE
  5
0
  8
Slice
 10
14.3
 20
73.15
 30
0
 11
14.3
 21
76.75
 31
0
  0
LINE
  5
0
  8
Slice
 10
14.7
 20
68.75
 30
0
 11
15.1
 21
68.75
 31
0
  0
ARC
  5
0
  8
Slice
 10
18.1
 20
64.15
 30
0
 40
0.199999999999999
 50
0
 51
90
  0
LINE
  5
0
  8
Slice
 10
13.1
 20
51.05
 30
0
 11
12.7
 21
51.05
 31
0
  0
ARC
  5
0
  8
Slice
 10
15.1
 20
59.25
 30
0
 40
0.199999999999998
 50
0
 51
90
  0
LINE
  5
0
  8
Slice
 10
12.7
 20
47.05
 30
0
 11
13.1
 21
47.05
 31
0
  0
ARC
  5
0
  8
Slice
 10
15.7
 20
64.75
 30
0
 40
0.199999999999999
 50
180
 51
270
  0
LINE
  5
0
  8
Slice
 10
20.3
 20
68.95
 30
0
 11
20.3
 21
72.55
 31
0
  0
ARC
  5
0
  8
Slice
 10
19.1
 20
60.55
 30
0
 40
0.200000000000003
 50
-90
 51
0
  0
LINE
  5
0
  8
Slice
 10
19.3
 20
68.95
 30
0
 11
19.3
 21
72.55
 31
0
  0
ARC
  5
0
  8
Slice
 10
14.7
 20
47.25
 30
0
 40
0.199999999999999
 50
180
 51
270
  0
LINE
  5
0
  8
Slice
 10
17.5
 20
59.25
 30
0
 11
17.5
 21
55.65
 31
0
  0
ARC
  5
0
  8
Slice
 10
20.7
 20
60.55
 30
0
 40
0.199999999999999
 50
180
 51
270
  0
LINE
  5
0
  8
Slice
 10
20.1
 20
68.55
 30
0
 11
19.7
 21
68.55
 31
0
  0
LINE
  5
0
  8
Slice
 10
15.3
 20
55.65
 30
0
 11
15.3
 21
59.25
 31
0
  0
LINE
  5
0
  8
Slice
 10
19.1
 20
68.55
 30
0
 11
18.7
 21
68.55
 31
0
  0
LINE
  5
0
  8
Slice
 10
13.1
 20
68.55
 30
0
 11
12.7
 21
68.55
 31
0
  0
ARC
  5
0
  8
Slice
 10
16.7
 20
50.85
 30
0
 40
0.200000000000003
 50
90
 51
180
  0
ARC
  5
0
  8
Slice
 10
17.7
 20
72.55
 30
0
 40
0.200000000000017
 50
90
 51
180
  0
LINE
  5
0
  8
Slice
 10
18.7
 20
60.35
 30
0
 11
19.1
 21
60.35
 31
0
  0
LINE
  5
0
  8
Slice
 10
14.3
 20
55.65
 30
0
 11
14.3
 21
59.25
 31
0
  0
ARC
  5
0
  8
Slice
 10
18.7
 20
60.55
 30
0
 40
0.199999999999999
 50
180
 51
270
  0
ARC
  5
0
  8
Slice
 10
12.1
 20
76.75
 30
0
 40
0.200000000000001
 50
0
 51
90
  0
LINE
  5
0
  8
Slice
 10
15.7
 20
60.35
 30
0
 11
16.1
 21
60.35
 31
0
  0
ARC
  5
0
  8
Slice
 10
13.7
 20
60.55
 30
0
 40
0.200000000000001
 50
180
 51
270
  0
LINE
  5
0
  8
Slice
 10
16.7
 20
60.35
 30
0
 11
17.1
 21
60.35
 31
0
  0
LINE
  5
0
  8
Slice
 10
12.3
 20
59.25
 30
0
 11
12.3
 21
55.65
 31
0
  0
LINE
  5
0
  8
Slice
 10
11.5
 20
64.15
 30
0
 11
11.5
 21
60.55
 31
0
  0
LINE
  5
0
  8
Slice
 10
22.3
 20
60.55
 30
0
 11
22.3
 21
64.15
 31
0
  0
ARC
  5
0
  8
Slice
 10
12.7
 20
64.15
 30
0
 40
0.200000000000003
 50
90
 51
180
  0
LINE
  5
0
  8
Slice
 10
21.5
 20
68.35
 30
0
 11
21.5
 21
64.75
 31
0
  0
LINE
  5
0
  8
Slice
 10
15.5
 20
59.25
 30
0
 11
15.5
 21
55.65
 31
0
  0
ARC
  5
0
  8
Slice
 10
11.7
 20
60.55
 30
0
 40
0.200000000000001
 50
180
 51
270
  0
LINE
  5
0
  8
Slice
 10
19.8
 20
59.8
 30
0
 11
19.8
 21
42.35
 31
0
  0
LINE
  5
0
  8
Slice
 10
14.3
 20
60.55
 30
0
 11
14.3
 21
64.15
 31
0
  0
ARC
  5
0
  8
Slice
 10
20.1
 20
60.55
 30
0
 40
0.200000000000003
 50
-90
 51
0
  0
ARC
  5
0
  8
Slice
 10
14.1
 20
76.75
 30
0
 40
0.200000000000001
 50
0
 51
90
  0
LINE
  5
0
  8
Slice
 10
12.5
 20
59.25
 30
0
 11
12.5
 21
55.65
 31
0
  0
ARC
  5
0
  8
Slice
 10
11.7
 20
76.75
 30
0
 40
0.200000000000003
 50
90
 51
180
  0
ARC
  5
0
  8
Slice
 10
11.7
 20
64.15
 30
0
 40
0.200000000000003
 50
90
 51
180
  0
LINE
  5
0
  8
Slice
 10
14.5
 20
59.25
 30
0
 11
14.5
 21
55.65
 31
0
  0
LINE
  5
0
  8
Slice
 10
13.1
 20
59.45
 30
0
 11
12.7
 21
59.45
 31
0
  0
LINE
  5
0
  8
Slice
 10
13.7
 20
59.85
 30
0
 11
11.0000000000001
 21
59.85
 31
0
  0
LINE
  5
0
  8
Slice
 10
18.3
 20
55.65
 30
0
 11
18.3
 21
59.25
 31
0
  0
ARC
  5
0
  8
Slice
 10
17.7
 20
55.65
 30
0
 40
0.199999999999999
 50
180
 51
270
  0
ARC
  5
0
  8
Slice
 10
12.7
 20
73.15
 30
0
 40
0.199999999999999
 50
180
 51
270
  0
ARC
  5
0
  8
Slice
 10
12.1
 20
43.05
 30
0
 40
0.200000000000003
 50
-90
 51
0
  0
ARC
  5
0
  8
Slice
 10
14.7
 20
76.75
 30
0
 40
0.200000000000003
 50
90
 51
180
  0
LINE
  5
0
  8
Slice
 10
22.3
 20
64.75
 30
0
 11
22.3
 21
68.35
 31
0
  0
LINE
  5
0
  8
Slice
 10
20.5
 20
68.35
 30
0
 11
20.5
 21
64.75
 31
0
  0
LINE
  5
0
  8
Slice
 10
19.1
 20
59.45
 30
0
 11
18.7
 21
59.45
 31
0
  0
LINE
  5
0
  8
Slice
 10
14.1
 20
42.35
 30
0
 11
19.8
 21
42.35
 31
0
  0
LINE
  5
0
  8
Slice
 10
22.1
 20
68.55
 30
0
 11
21.7
 21
68.55
 31
0
  0
LINE
  5
0
  8
Slice
 10
21.3
 20
64.75
 30
0
 11
21.3
 21
68.35
 31
0
  0
ARC
  5
0
  8
Slice
 10
12.7
 20
76.75
 30
0
 40
0.200000000000003
 50
90
 51
180
  0
LINE
  5
0
  8
Slice
 10
16.1
 20
59.45
 30
0
 11
15.7
 21
59.45
 31
0
  0
ARC
  5
0
  8
Slice
 10
12.1
 20
47.25
 30
0
 40
0.200000000000003
 50
-90
 51
0
  0
LINE
  5
0
  8
Slice
 10
17.7
 20
60.35
 30
0
 11
18.1
 21
60.35
 31
0
  0
ARC
  5
0
  8
Slice
 10
12.1
 20
73.15
 30
0
 40
0.200000000000003
 50
-90
 51
0
  0
LINE
  5
0
  8
Slice
 10
18.5
 20
59.25
 30
0
 11
18.5
 21
55.65
 31
0
  0
ARC
  5
0
  8
Slice
 10
12.1
 20
55.65
 30
0
 40
0.200000000000003
 50
-90
 51
0
  0
LINE
  5
0
  8
Slice
 10
21.7
 20
60.35
 30
0
 11
22.1
 21
60.35
 31
0
  0
ARC
  5
0
  8
Slice
 10
13.1
 20
60.55
 30
0
 40
0.200000000000003
 50
-90
 51
0
  0
ARC
  5
0
  8
Slice
 10
12.7
 20
60.55
 30
0
 40
0.199999999999999
 50
180
 51
270
  0
LINE
  5
0
  8
Slice
 10
19.5
 20
68.35
 30
0
 11
19.5
 21
64.75
 31
0
  0
ARC
  5
0
  8
Slice
 10
17.1
 20
60.55
 30
0
 40
0.200000000000003
 50
-90
 51
0
  0
ARC
  5
0
  8
Slice
 10
16.7
 20
60.55
 30
0
 40
0.199999999999999
 50
180
 51
270
  0
ARC
  5
0
  8
Slice
 10
13.1
 20
76.75
 30
0
 40
0.199999999999998
 50
0
 51
90
  0
ARC
  5
0
  8
Slice
 10
15.1
 20
60.55
 30
0
 40
0.200000000000003
 50
-90
 51
0
  0
LINE
  5
0
  8
Slice
 10
16.5
 20
59.25
 30
0
 11
16.5
 21
55.65
 31
0
  0
LINE
  5
0
  8
Slice
 10
18.1
 20
59.45
 30
0
 11
17.7
 21
59.45
 31
0
  0
ARC
  5
0
  8
Slice
 10
13.7
 20
43.05
 30
0
 40
0.200000000000001
 50
180
 51
270
  0
LINE
  5
0
  8
Slice
 10
17.3
 20
55.65
 30
0
 11
17.3
 21
59.25
 31
0
  0
ARC
  5
0
  8
Slice
 10
14.7
 20
60.55
 30
0
 40
0.199999999999999
 50
180
 51
270
  0
LINE
  5
0
  8
Slice
 10
12.7
 20
60.35
 30
0
 11
13.1
 21
60.35
 31
0
  0
LINE
  5
0
  8
Slice
 10
19.7
 20
60.35
 30
0
 11
20.1
 21
60.35
 31
0
  0
ARC
  5
0
  8
Slice
 10
13.7
 20
76.75
 30
0
 40
0.200000000000003
 50
90
 51
180
  0
LINE
  5
0
  8
Slice
 10
13.7
 20
59.85
 30
0
 11
14.1
 21
59.85
 31
0
  0
ARC
  5
0
  8
Slice
 10
13.7
 20
73.15
 30
0
 40
0.200000000000001
 50
180
 51
270
  0
ARC
  5
0
  8
Slice
 10
12.1
 20
51.45
 30
0
 40
0.200000000000003
 50
-90
 51
0
  0
ARC
  5
0
  8
Slice
 10
11.7
 20
55.05
 30
0
 40
0.200000000000003
 50
90
 51
180
  0
LINE
  5
0
  8
Slice
 10
11.0000000000001
 20
59.8
 30
0
 11
11.0000000000001
 21
42.35
 31
0
  0
ARC
  5
0
  8
Slice
 10
17.7
 20
60.55
 30
0
 40
0.199999999999999
 50
180
 51
270
  0
LINE
  5
0
  8
Slice
 10
13.3
 20
55.65
 30
0
 11
13.3
 21
59.25
 31
0
  0
ARC
  5
0
  8
Slice
 10
11.7
 20
47.25
 30
0
 40
0.200000000000001
 50
180
 51
270
  0
LINE
  5
0
  8
Slice
 10
11.0000000000001
 20
77.3
 30
0
 11
11.0000000000001
 21
59.85
 31
0
  0
ARC
  5
0
  8
Slice
 10
16.1
 20
55.65
 30
0
 40
0.200000000000003
 50
-90
 51
0
  0
ARC
  5
0
  8
Slice
 10
11.7
 20
51.45
 30
0
 40
0.200000000000001
 50
180
 51
270
  0
LINE
  5
0
  8
Slice
 10
13.5
 20
59.25
 30
0
 11
13.5
 21
55.65
 31
0
  0
ARC
  5
0
  8
Slice
 10
21.7
 20
64.15
 30
0
 40
0.200000000000003
 50
90
 51
180
  0
ARC
  5
0
  8
Slice
 10
11.7
 20
46.65
 30
0
 40
0.200000000000003
 50
90
 51
180
  0
ARC
  5
0
  8
Slice
 10
14.1
 20
73.15
 30
0
 40
0.200000000000003
 50
-90
 51
0
  0
ARC
  5
0
  8
Slice
 10
12.1
 20
50.85
 30
0
 40
0.200000000000001
 50
0
 51
90
  0
LINE
  5
0
  8
Slice
 10
16.3
 20
55.65
 30
0
 11
16.3
 21
59.25
 31
0
  0
ARC
  5
0
  8
Slice
 10
11.7
 20
55.65
 30
0
 40
0.200000000000001
 50
180
 51
270
  0
LINE
  5
0
  8
Slice
 10
22.8
 20
77.3
 30
0
 11
11.0000000000001
 21
77.3
 31
0
  0
ARC
  5
0
  8
Slice
 10
11.7
 20
50.85
 30
0
 40
0.200000000000003
 50
90
 51
180
  0
ARC
  5
0
  8
Slice
 10
12.7
 20
55.65
 30
0
 40
0.199999999999999
 50
180
 51
270
  0
ARC
  5
0
  8
Slice
 10
12.1
 20
55.05
 30
0
 40
0.200000000000001
 50
0
 51
90
  0
ARC
  5
0
  8
Slice
 10
12.1
 20
60.55
 30
0
 40
0.200000000000003
 50
-90
 51
0
  0
ARC
  5
0
  8
Slice
 10
21.1
 20
60.55
 30
0
 40
0.200000000000003
 50
-90
 51
0
  0
LINE
  5
0
  8
Slice
 10
13.7
 20
60.35
 30
0
 11
14.1
 21
60.35
 31
0
  0
ARC
  5
0
  8
Slice
 10
15.1
 20
76.75
 30
0
 40
0.199999999999998
 50
0
 51
90
  0
LINE
  5
0
  8
Slice
 10
15.1
 20
59.45
 30
0
 11
14.7
 21
59.45
 31
0
  0
ARC
  5
0
  8
Slice
 10
15.1
 20
73.15
 30
0
 40
0.200000000000003
 50
-90
 51
0
  0
LINE
  5
0
  8
Slice
 10
17.1
 20
59.45
 30
0
 11
16.7
 21
59.45
 31
0
  0
ARC
  5
0
  8
Slice
 10
17.1
 20
55.65
 30
0
 40
0.200000000000003
 50
-90
 51
0
  0
ARC
  5
0
  8
Slice
 10
14.7
 20
73.15
 30
0
 40
0.199999999999999
 50
180
 51
270
  0
LINE
  5
0
  8
Slice
 10
19.8
 20
59.8
 30
0
 11
11.0000000000001
 21
59.8
 31
0
  0
LINE
  5
0
  8
Slice
 10
14.1
 20
59.45
 30
0
 11
13.7
 21
59.45
 31
0
  0
LINE
  5
0
  8
Slice
 10
17.1
 20
68.55
 30
0
 11
16.7
 21
68.55
 31
0
  0
LINE
  5
0
  8
Slice
 10
22.8
 20
76.75
 30
0
 11
22.8
 21
59.85
 31
0
  0
LINE
  5
0
  8
Slice
 10
12.1
 20
59.45
 30
0
 11
11.7
 21
59.45
 31
0
  0
ARC
  5
0
  8
Slice
 10
13.1
 20
73.15
 30
0
 40
0.200000000000003
 50
-90
 51
0
  0
ARC
  5
0
  8
Slice
 10
11.7
 20
43.05
 30
0
 40
0.200000000000001
 50
180
 51
270
  0
LINE
  5
0
  8
Slice
 10
3.70319467539973
 20
14.4814933899756
 30
0
 11
1.25000000000004
 21
14
 31
0
  0
ARC
  5
0
  8
Slice
 10
0
 20
26.3
 30
0
 40
3
 50
0
 51
180
  0
ARC
  5
0
  8
Slice
 10
0
 20
26.3
 30
0
 40
3
 50
180
 51
360
  0
LINE
  5
0
  8
Slice
 10
-6.06655596788372
 20
15.6806068286363
 30
0
 11
-10
 21
29.2374306426137
 31
0
  0
LINE
  5
0
  8
Slice
 10
-5.21801970080791
 20
14.9796420862693
 30
0
 11
-6.06655596788372
 21
15.6806068286363
 31
0
  0
LINE
  5
0
  8
Slice
 10
1.25000000000004
 20
14
 30
0
 11
-1.25000000000006
 21
14
 31
0
  0
LINE
  5
0
  8
Slice
 10
-3.70319467539975
 20
14.4814933899756
 30
0
 11
-5.21801970080791
 21
14.9796420862693
 31
0
  0
LINE
  5
0
  8
Slice
 10
-1.25000000000006
 20
14
 30
0
 11
-3.70319467539975
 21
14.4814933899756
 31
0
  0
LINE
  5
0
  8
Slice
 10
-10
 20
29.2374306426137
 30
0
 11
-10.0000000000001
 21
78.3
 31
0
  0
LINE
  5
0
  8
Slice
 10
-10.0000000000001
 20
78.3
 30
0
 11
-35.0000000000001
 21
78.3
 31
0
  0
ARC
  5
0
  8
Slice
 10
0
 20
83.3
 30
0
 40
3
 50
0
 51
180
  0
LINE
  5
0
  8
Slice
 10
-35.0000000000001
 20
51.0000000000002
 30
0
 11
-43.0000000000003
 21
42.9999999999999
 31
0
  0
LINE
  5
0
  8
Slice
 10
-35.0000000000001
 20
78.3
 30
0
 11
-35.0000000000001
 21
51.0000000000002
 31
0
  0
ARC
  5
0
  8
Slice
 10
0
 20
83.3
 30
0
 40
3
 50
180
 51
360
  0
ARC
  5
0
  8
Slice
 10
-50.0710678118657
 20
50.0710678118654
 30
0
 40
2.49999999999996
 50
-45.0000000000017
 51
135.000000000002
  0
LINE
  5
0
  8
Slice
 10
-43.0000000000003
 20
42.9999999999999
 30
0
 11
-48.3033008588994
 21
48.303300858899
 31
0
  0
ARC
  5
0
  8
Slice
 10
-55.146067811865
 20
75.296067811866
 30
0
 40
3
 50
0
 51
180
  0
ARC
  5
0
  8
Slice
 10
-55.146067811865
 20
75.296067811866
 30
0
 40
3
 50
180
 51
360
  0
ARC
  5
0
  8
Slice
 10
55.146067811865
 20
75.296067811866
 30
0
 40
3
 50
0
 51
180
  0
ARC
  5
0
  8
Slice
 10
55.146067811865
 20
75.296067811866
 30
0
 40
3
 50
180
 51
360
  0
LINE
  5
0
  8
Slice
 10
-51.8388347648321
 20
51.8388347648317
 30
0
 11
-78.1499999999998
 21
78.1500000000003
 31
0
  0
LINE
  5
0
  8
Slice
 10
5.21801970080791
 20
14.9796420862693
 30
0
 11
3.70319467539973
 21
14.4814933899756
 31
0
  0
LINE
  5
0
  8
Slice
 10
6.06655596788372
 20
15.6806068286363
 30
0
 11
5.21801970080791
 21
14.9796420862693
 31
0
  0
LINE
  5
0
  8
Slice
 10
10
 20
29.2374306426137
 30
0
 11
6.06655596788372
 21
15.6806068286363
 31
0
  0
LINE
  5
0
  8
Slice
 10
10.0000000000001
 20
78.3
 30
0
 11
10
 21
29.2374306426137
 31
0
  0
LINE
  5
0
  8
Slice
 10
35.0000000000001
 20
78.3
 30
0
 11
10.0000000000001
 21
78.3
 31
0
  0
LINE
  5
0
  8
Slice
 10
35.0000000000001
 20
51.0000000000002
 30
0
 11
35.0000000000001
 21
78.3
 31
0
  0
LINE
  5
0
  8
Slice
 10
43.0000000000003
 20
42.9999999999999
 30
0
 11
35.0000000000001
 21
51.0000000000002
 31
0
  0
LINE
  5
0
  8
Slice
 10
-78.1499999999998
 20
78.1500000000003
 30
0
 11
-58.0000000000001
 21
98.3
 31
0
  0
LINE
  5
0
  8
Slice
 10
48.3033008588994
 20
48.303300858899
 30
0
 11
43.0000000000003
 21
42.9999999999999
 31
0
  0
ARC
  5
0
  8
Slice
 10
50.0710678118657
 20
50.0710678118654
 30
0
 40
2.49999999999998
 50
44.9999999999983
 51
225.000000000002
  0
LINE
  5
0
  8
Slice
 10
78.1499999999998
 20
78.1500000000003
 30
0
 11
51.8388347648321
 21
51.8388347648317
 31
0
  0
LINE
  5
0
  8
Slice
 10
58.0000000000001
 20
98.3
 30
0
 11
78.1499999999998
 21
78.1500000000003
 31
0
  0
LINE
  5
0
  8
Slice
 10
-58.0000000000001
 20
98.3
 30
0
 11
58.0000000000001
 21
98.3
 31
0
  0
ENDSEC
  0
EOF
